<svg version="1" xmlns="http://www.w3.org/2000/svg" width="749.333" height="749.333" viewBox="0 0 562.000000 562.000000"><path d="M272.9 14.4c-.2.2-2.9.6-5.9 1-9.3 1-11.5 1.4-20.2 3.5C186 33.3 139.2 74.3 111.3 137.5c-3.4 7.7-11 28.8-11.8 32.5-.2.8-1 4-1.9 7.1-.9 3.1-1.9 6.7-2.1 8-1.7 8.8-3.7 18.9-4.5 21.6l-.8 3.3 90.1.1 90.2.1L260 212c-15.3 2.7-15.6 2.8-26.6 6.5-42.9 14.3-79 46-98.3 86.5-4.8 10.1-11.4 28.3-12.4 34.5-.3 1.7-1 5-1.5 7.5-3.1 13.3-3.5 42.9-.8 57.5 1 4.9 1.9 10.3 2.2 12 .3 1.6 2.3 8.4 4.5 15 21.5 64.4 81.4 110.5 148.4 114.2l11 .6v-47.4c-.1-26.1 0-47.9.2-48.4.2-.7 21-1 61-1 52.9 0 60.7.2 61.1 1.5.9 2.8 8.2 8.9 11.9 9.9 2.1.6 12.8 1.1 23.8 1.1 18.9 0 20.2-.2 23.9-2.3 2.2-1.2 5.3-3.9 7-6l3.1-3.9.3-22.4.3-22.4-2.6-4.8c-1.8-3.4-3.9-5.5-7.1-7.2-4.4-2.4-5-2.5-26.7-2.5s-22.3.1-26.1 2.4c-3.9 2.4-10 10.7-9 12.2.3.5 0 .9-.6.9s-.9.4-.6.8c.3.5-23.7.9-53.2.8-29.5 0-51.7-.3-49.2-.7 2.5-.3 6.3-.9 8.5-1.2 9.1-1.3 27.6-5.6 33.5-7.7 22.5-7.9 35.4-14.1 50-23.8 26.3-17.5 47.5-41.9 61.9-71.4 5.5-11.2 12.4-29.1 13.5-35 .2-1.2.9-4.1 1.4-6.3 1.3-4.7 2-8.5 2.7-14 .3-2.2.7-5.6 1-7.5.6-4.3.7-34.7.1-37.5-.2-1.1-.7-4.9-1.1-8.5-.4-3.6-.8-6.7-1-7-.2-.3-.6-2.5-1-5s-.8-4.7-1-5.1c-.2-.3-.7-2.1-1-4-2.2-13-12.4-39.9-22.4-59.4-17.1-33.4-32.1-50.4-59.6-68-3.3-2.1-7.1-4.5-8.5-5.4-3.7-2.5-18.9-9.7-27.8-13.3-9.9-3.9-24.8-8.2-34.3-9.8-4.1-.7-8.3-1.5-9.4-1.7-2.3-.6-36.1-1.3-36.6-.9z"/></svg>